<?xml version="1.0" encoding="utf-8"?>
<!-- Generator: Adobe Illustrator 24.0.0, SVG Export Plug-In . SVG Version: 6.00 Build 0)  -->
<svg version="1.1" id="图层_1" xmlns="http://www.w3.org/2000/svg" xmlns:xlink="http://www.w3.org/1999/xlink" x="0px" y="0px"
	 viewBox="0 0 1366 768" style="enable-background:new 0 0 1366 768;" xml:space="preserve">
<style type="text/css">
	.st0{fill:#191B5C;}
	.st1{fill:#FF3F57;}
</style>
<g>
	<path class="st0" d="M636.4,335.6c74,0,145.8,0,221.1,0c-15.6,39.5-29.2,76-44.9,111.6c-2.3,5.2-14.8,8-22.6,8.1
		c-87,0.6-189-3.9-231.4,55.8c-17.1,24.8-40.9,118.8-63.4,178.6c-5.4,14.3-12.7,19-27.7,18.7c-50.5-1-101-0.4-156.5-0.4
		c67.7-172.4,134.2-341.8,202.3-515.3c-17.5-12.4-39.7-28.1-64.1-45.3c7.1-17.8,13.5-36,21.7-53.3c2.2-4.6,10-9.2,15.3-9.2
		c188.2-0.7,376.3-0.9,564.5-1.2c0.7,0,1.3,0.5,4.2,1.6C1035,137,1015.5,188.9,994.4,240c-2.2,5.2-14.3,8.6-21.9,8.7
		c-77.4,0.6-154.8,2.6-232.1-0.3C671.5,245.9,650.6,279.8,636.4,335.6z"/>
	<path class="st1" d="M680.2,87.6c-41.4,3.8-75.4,25.3-106.8,50.6c-20.6,16.6-38.3,36.9-59.6,57.8c-20.9-14.3-43.2-29.6-67.6-46.3
		c7.3-18.6,13.1-37.6,22.2-54.8c3-5.8,14.2-9.7,21.8-9.9c55.1-0.8,110.2-0.4,165.3-0.6c8.2,0,16.5-1,24.7-1.5
		C680.2,84.5,680.2,86.1,680.2,87.6z"/>
</g>
</svg>
